Coordinates
version=1
nRows=26
nColumns=24
inDegrees=yes

Units are S.I. units (second, meters, Newtons, ...)
Angles are in degrees.

endheader
time	pelvis_tilt	pelvis_list	pelvis_rotation	pelvis_tx	pelvis_ty	pelvis_tz	hip_flexion_r	hip_adduction_r	hip_rotation_r	knee_angle_r	ankle_angle_r	subtalar_angle_r	mtp_angle_r	hip_flexion_l	hip_adduction_l	hip_rotation_l	knee_angle_l	ankle_angle_l	subtalar_angle_l	mtp_angle_l	lumbar_extension	lumbar_bending	lumbar_rotation
      3.79000000	    -11.64545274	      9.37390416	     -2.46920419	     -0.86103954	     -0.04151289	     -0.29798894	     12.89712057	    -14.31244024	     -6.71253674	    -57.92048204	    -29.29856118	    -14.05908965	     10.84774013	     31.59437334	     10.16503406	     -5.95563808	    -25.72727688	     -0.14793656	    -16.82636989	    -12.91335841	      8.48068713	     -9.99997992	      5.57601648
      3.79500000	    -11.66225010	      9.31689264	     -2.54628318	     -0.85389896	     -0.04041770	     -0.29818785	     14.06432583	    -14.13724578	     -6.37524485	    -59.17277482	    -28.19842682	    -14.95844782	     10.56157246	     31.02875414	     10.09644974	     -6.14459275	    -25.55975291	      0.36592176	    -16.45203184	    -12.47443817	      8.46306664	     -9.92734290	      5.58781719
      3.80000000	    -11.64493381	      9.22736225	     -2.55936862	     -0.84659726	     -0.03918538	     -0.29847645	     15.11537705	    -13.95240729	     -6.16597304	    -60.27228653	    -26.90069612	    -15.60060391	     10.10422777	     30.36757571	     10.05472983	     -6.15520871	    -25.31343385	      0.78309767	    -16.15494016	    -11.89241598	      8.42610729	     -9.83117395	      5.52201057
      3.80500000	    -11.58512849	      9.09884838	     -2.55985529	     -0.83938556	     -0.03786054	     -0.29882959	     16.10123916	    -13.74333732	     -6.02694532	    -61.25271716	    -25.60496563	    -16.10214611	      9.68670228	     29.65558736	      9.99766700	     -6.10368306	    -25.04779059	      1.11382090	    -15.95199547	    -11.29299619	      8.32004873	     -9.69021383	      5.41463720
      3.81000000	    -11.50874889	      8.95003626	     -2.51544566	     -0.83224935	     -0.03650142	     -0.29926871	     17.03838849	    -13.54352151	     -5.98680026	    -62.10404322	    -24.44914994	    -16.56299272	      9.70139288	     28.93173787	      9.95104367	     -5.99568974	    -24.79187417	      1.46147451	    -15.75409652	    -10.99833345	      8.17112170	     -9.53114520	      5.21641730
      3.81500000	    -11.45704119	      8.72236487	     -2.50832854	     -0.82515166	     -0.03513079	     -0.29968132	     17.98785688	    -13.23848465	     -5.92708088	    -62.84145222	    -23.27698134	    -16.80284393	      9.74198624	     28.23112282	      9.80914946	     -5.86687349	    -24.53448981	      1.81612318	    -15.59852379	    -10.70742290	      8.05704175	     -9.27351219	      5.09466550
      3.82000000	    -11.40992224	      8.46485818	     -2.48901167	     -0.81806922	     -0.03372861	     -0.30010754	     18.91305778	    -12.90699058	     -5.91345295	    -63.45735164	    -22.19400796	    -16.94777472	      9.83039832	     27.52150393	      9.65191546	     -5.65110636	    -24.25476531	      2.13323108	    -15.48450979	    -10.48563780	      7.94817478	     -8.98290058	      4.94830239
      3.82500000	    -11.37300610	      8.19427571	     -2.43854314	     -0.81108122	     -0.03237011	     -0.30056438	     19.82890325	    -12.57606129	     -5.95404547	    -63.98614815	    -21.11824625	    -16.96809862	      9.93619192	     26.83847067	      9.49156267	     -5.42867724	    -23.98709348	      2.41346531	    -15.39963297	    -10.28655411	      7.82995539	     -8.68419213	      4.78005485
      3.83000000	    -11.34185130	      7.91658728	     -2.37574530	     -0.80406563	     -0.03103620	     -0.30107024	     20.72407419	    -12.25690363	     -6.04239765	    -64.41483266	    -20.08457313	    -16.87662793	     10.05772886	     26.14756039	      9.33772748	     -5.15539556	    -23.69495460	      2.68246379	    -15.36744321	    -10.11498859	      7.72782526	     -8.37036248	      4.60139449
      3.83500000	    -11.30730760	      7.61114889	     -2.30237258	     -0.79709475	     -0.02968121	     -0.30154422	     21.58358757	    -11.90030971	     -6.15220079	    -64.73122482	    -19.10552235	    -16.73214361	     10.23141764	     25.44855430	      9.15851415	     -4.84190250	    -23.38850206	      2.90926867	    -15.36639878	    -10.01594386	      7.61438894	     -8.03453903	      4.40522518
      3.84000000	    -11.27266564	      7.30393384	     -2.21263486	     -0.79011526	     -0.02835390	     -0.30205837	     22.41331952	    -11.55711854	     -6.30110594	    -64.95034102	    -18.14825147	    -16.52026787	     10.46206301	     24.73953270	      8.98650793	     -4.50225546	    -23.06127100	      3.13100965	    -15.39036715	     -9.96783058	      7.50453937	     -7.69318672	      4.19632245
      3.84500000	    -11.23508220	      6.99978488	     -2.10024922	     -0.78312711	     -0.02705490	     -0.30260080	     23.20718532	    -11.23264172	     -6.48963457	    -65.07389854	    -17.18923825	    -16.25186884	     10.76175226	     24.01897725	      8.82525756	     -4.14267261	    -22.71474424	      3.34203370	    -15.42778152	     -9.96847806	      7.39232293	     -7.35697508	      3.97265857
      3.85000000	    -11.18677412	      6.71492505	     -1.95670356	     -0.77609985	     -0.02579521	     -0.30320925	     23.95428792	    -10.95735508	     -6.72659531	    -65.10539727	    -16.21899884	    -15.93201366	     11.18122283	     23.27117563	      8.69767428	     -3.75820736	    -22.33863941	      3.55997212	    -15.47576866	    -10.03200603	      7.27511589	     -7.04130551	      3.74097144
      3.85500000	    -11.13619128	      6.40667973	     -1.80883132	     -0.76909625	     -0.02453036	     -0.30377684	     24.66460653	    -10.64706577	     -6.97337907	    -65.02784773	    -15.27117456	    -15.61803666	     11.68040954	     22.51997285	      8.53319921	     -3.39753282	    -21.95414402	      3.75843376	    -15.50078549	    -10.13942566	      7.15015866	     -6.70606461	      3.47937322
      3.86000000	    -11.05185609	      6.11957479	     -1.66600632	     -0.76209844	     -0.02325268	     -0.30443051	     25.29737285	    -10.36919142	     -7.19391102	    -64.76177451	    -14.79768668	    -15.59737033	     14.43622144	     21.71837554	      8.40430146	     -2.98698230	    -21.56320978	      4.20496527	    -15.43771800	    -11.31763385	      6.98964412	     -6.37918868	      3.24119764
      3.86500000	    -11.03301580	      5.79955819	     -1.51139415	     -0.75511925	     -0.02209535	     -0.30495635	     25.99480465	    -10.03780349	     -7.46084550	    -64.51131484	    -13.83937659	    -15.29730237	     14.74147059	     20.99863626	      8.19836742	     -2.70325536	    -21.15609619	      4.40928223	    -15.38348152	    -11.31845841	      6.89757897	     -6.03294171	      2.98645464
      3.87000000	    -10.96326977	      5.51871023	     -1.31923531	     -0.74808097	     -0.02095530	     -0.30556986	     26.59834056	     -9.79141420	     -7.78412704	    -64.17264126	    -12.88372766	    -14.99459698	     15.19671684	     20.19963961	      8.05003584	     -2.38266984	    -20.70488694	      4.61942304	    -15.33563140	    -11.35694912	      6.75812073	     -5.72780390	      2.72171574
      3.87500000	    -10.90897955	      5.21193740	     -1.13346717	     -0.74109279	     -0.01985089	     -0.30615072	     27.19251810	     -9.50014325	     -8.09573784	    -63.73202273	    -12.00696895	    -14.75359624	     15.68575052	     19.42338266	      7.85597719	     -2.10723790	    -20.25181754	      4.83211804	    -15.25378406	    -11.39599635	      6.62746283	     -5.39516123	      2.44383260
      3.88000000	    -10.74860403	      4.92786055	     -0.98464057	     -0.73407294	     -0.01863518	     -0.30671785	     27.63825277	     -9.22329959	     -8.36723126	    -63.15029719	    -11.36678568	    -14.65535625	     16.96019282	     18.49289424	      7.68344350	     -1.79750002	    -19.72550437	      5.00276816	    -15.24775579	    -11.65762323	      6.39175259	     -5.07720904	      2.19513814
      3.88500000	    -10.81557485	      4.60747700	     -0.78284217	     -0.72719452	     -0.01780903	     -0.30722589	     28.33559553	     -8.90581392	     -8.68678173	    -62.56989278	    -10.59781279	    -14.53213709	     17.25862442	     17.89149362	      7.43993097	     -1.59964360	    -19.33060878	      5.25835669	    -15.03983790	    -11.62271814	      6.37371990	     -4.73664907	      1.90110713
      3.89000000	    -10.79376188	      4.30462335	     -0.57627951	     -0.72026648	     -0.01692314	     -0.30779400	     28.89756194	     -8.62902850	     -9.02306095	    -61.89073484	     -9.90707368	    -14.42114926	     17.55813502	     17.16398127	      7.22560851	     -1.35776629	    -18.87803160	      5.47146225	    -14.90009062	    -11.61369508	      6.26923074	     -4.40958520	      1.60960347
      3.89500000	    -10.76516787	      4.00425180	     -0.37916825	     -0.71337460	     -0.01610032	     -0.30832409	     29.43641071	     -8.34931315	     -9.34855293	    -61.13726159	     -9.31999000	    -14.37410272	     17.80320103	     16.43246928	      7.00547851	     -1.10679649	    -18.42189660	      5.66789078	    -14.79949741	    -11.61792694	      6.15257290	     -4.08175224	      1.31945535
      3.90000000	    -10.74104571	      3.71504265	     -0.17858369	     -0.70650060	     -0.01535303	     -0.30884230	     29.95949011	     -8.08558167	     -9.67773535	    -60.31096939	     -8.82489345	    -14.39000718	     17.98343792	     15.71238528	      6.79247656	     -0.84908146	    -17.97021892	      5.84847369	    -14.71421129	    -11.63812226	      6.03856371	     -3.76553560	      1.03927217
      3.90500000	    -10.72161743	      3.42917141	      0.02426782	     -0.69963656	     -0.01469038	     -0.30937475	     30.46639275	     -7.83560786	    -10.01850912	    -59.41540747	     -8.41582928	    -14.45506501	     18.08676391	     15.00327878	      6.58045803	     -0.58022498	    -17.52403843	      6.03086863	    -14.65318610	    -11.67964923	      5.92772726	     -3.45218446	      0.77123572
      3.91000000	    -10.71613252	      3.15550359	      0.22142739	     -0.69281308	     -0.01411424	     -0.30982603	     30.97465767	     -7.58513326	    -10.33066200	    -58.45814477	     -8.09052190	    -14.55585606	     18.09320421	     14.32123958	      6.36915614	     -0.31598389	    -17.09012767	      6.19381704	    -14.60521627	    -11.74242064	      5.82453651	     -3.15545988	      0.47296919
      3.91500000	    -10.72318884	      2.89933454	      0.41078363	     -0.68599828	     -0.01363247	     -0.31025139	     31.47989680	     -7.35175916	    -10.63003155	    -57.44044094	     -7.83389743	    -14.68416048	     18.00722242	     13.65809617	      6.16856897	     -0.06524404	    -16.65951743	      6.34817076	    -14.57111933	    -11.82095986	      5.73577931	     -2.87316654	      0.18991319
